<svg xmlns="http://www.w3.org/2000/svg" viewBox="0 0 350 150" width="350" height="150" role="img" aria-label="depdog">
  <title>depdog</title>
  <!-- dog head in profile; the ear-fold and mouth are contour notches, so the
       silhouette reads on both light and dark backgrounds -->
  <defs>
    <linearGradient id="fur" gradientUnits="userSpaceOnUse" x1="0" y1="10" x2="0" y2="121">
      <stop offset="0" stop-color="#E9A63E"/>
      <stop offset="1" stop-color="#C0700F"/>
    </linearGradient>
  </defs>
  <path fill="url(#fur)" d="M 90.6 10.0 C 91.8 10.2 94.5 8.4 97.2 11.4 C 99.9 14.5 105.3 23.7 106.6 28.5 C 107.8 33.4 105.5 36.8 104.7 40.8 C 103.9 44.8 104.1 49.0 101.8 52.7 C 99.6 56.5 94.1 60.9 91.3 63.1 C 88.5 65.4 86.3 66.6 85.0 66.4 C 83.7 66.2 83.3 65.4 83.6 62.0 C 84.0 58.7 86.2 50.5 87.2 46.3 C 88.1 42.0 89.0 38.8 89.2 36.6 C 89.5 34.3 89.5 33.8 88.6 32.6 C 87.7 31.5 84.1 29.2 83.8 29.6 C 83.5 30.0 86.4 33.0 86.7 35.2 C 87.1 37.5 86.7 37.6 85.9 42.9 C 85.0 48.3 81.7 63.0 81.7 67.4 C 81.8 71.7 84.1 69.4 86.2 69.0 C 88.2 68.6 90.8 65.8 93.9 64.8 C 97.0 63.8 101.4 62.9 104.6 62.8 C 107.7 62.7 110.7 63.0 112.9 64.1 C 115.2 65.2 116.8 67.3 117.9 69.3 C 119.1 71.3 119.6 74.0 119.8 76.0 C 120.1 78.1 119.9 80.1 119.6 81.6 C 119.3 83.1 118.7 84.0 118.0 84.9 C 117.3 85.9 116.6 86.2 115.3 87.2 C 114.1 88.2 112.6 89.1 110.5 90.9 C 108.4 92.7 105.4 96.1 102.7 98.1 C 99.9 100.1 96.9 101.4 94.1 103.0 C 91.4 104.5 88.6 106.1 86.0 107.4 C 83.4 108.7 80.8 109.9 78.5 110.9 C 76.2 112.0 74.1 112.8 72.1 113.6 C 70.2 114.3 68.4 114.9 66.8 115.4 C 65.2 116.0 63.9 116.4 62.5 116.9 C 61.2 117.3 60.1 117.7 58.9 118.1 C 57.8 118.5 56.7 119.0 55.7 119.4 C 54.6 119.8 53.6 120.3 52.6 120.6 C 51.7 120.9 50.7 121.2 49.9 121.1 C 49.2 121.1 48.4 120.9 48.0 120.2 C 47.6 119.5 47.4 118.5 47.5 117.0 C 47.6 115.4 48.1 113.4 48.8 110.9 C 49.5 108.4 50.7 105.2 51.9 102.0 C 53.1 98.7 55.2 94.6 56.2 91.4 C 57.1 88.2 58.2 84.8 57.3 82.9 C 56.5 81.1 54.4 80.3 51.2 80.3 C 48.0 80.2 42.6 82.4 38.1 82.8 C 33.6 83.1 27.1 83.4 24.1 82.4 C 21.2 81.4 20.2 77.5 20.6 76.6 C 21.1 75.8 23.5 77.8 26.8 77.4 C 30.1 77.0 38.5 74.9 40.4 74.2 C 42.3 73.5 40.4 72.9 38.3 73.1 C 36.3 73.4 31.2 75.5 28.1 75.7 C 25.1 76.0 22.0 76.3 19.9 74.6 C 17.8 73.0 16.0 68.7 15.4 66.0 C 14.7 63.3 16.3 59.8 16.2 58.4 C 16.0 56.9 14.9 57.1 14.6 57.5 C 14.3 57.8 14.5 60.5 14.2 60.5 C 13.8 60.5 12.6 58.4 12.6 57.4 C 12.5 56.4 10.4 56.9 14.0 54.4 C 17.7 51.9 30.6 45.1 34.5 42.4 C 38.5 39.7 36.8 40.2 37.7 38.0 C 38.7 35.9 38.8 32.0 40.2 29.5 C 41.5 27.1 41.9 25.8 46.0 23.5 C 50.1 21.2 59.4 16.7 64.8 15.6 C 70.1 14.6 76.3 16.2 78.1 17.2 C 79.9 18.2 73.5 22.8 75.6 21.6 C 77.6 20.5 87.7 12.4 90.2 10.4 C 92.7 8.5 89.4 9.8 90.6 10.0 Z"/>
  <text x="136" y="98" fill="url(#fur)"
        font-family="'Trebuchet MS','Segoe UI',system-ui,-apple-system,'Helvetica Neue',Arial,sans-serif"
        font-size="62" font-weight="800" letter-spacing="-1.5">depdog</text>
</svg>
